<svg width="49" height="48" viewBox="0 0 49 48" fill="none" xmlns="http://www.w3.org/2000/svg">
<path d="M1.7035 36.1435C1.2225 36.1435 0.818333 35.9799 0.491 35.6525C0.163667 35.3252 0 34.921 0 34.44V33.35C0 32.0147 0.705667 30.932 2.117 30.102C3.528 29.2717 5.3765 28.8565 7.6625 28.8565C8.02383 28.8565 8.36683 28.8629 8.6915 28.8755C9.01617 28.8882 9.34183 28.918 9.6685 28.965C9.38583 29.5674 9.17383 30.1794 9.0325 30.801C8.89117 31.423 8.8205 32.072 8.8205 32.748V36.1435H1.7035ZM13.7035 36.1435C13.2225 36.1435 12.8183 35.9799 12.491 35.6525C12.1637 35.3252 12 34.921 12 34.44V32.75C12 31.6594 12.2937 30.6624 12.881 29.759C13.4683 28.856 14.3033 28.0672 15.386 27.3925C16.4687 26.7179 17.7587 26.2099 19.256 25.8685C20.7537 25.5272 22.3817 25.3565 24.14 25.3565C25.9323 25.3565 27.5753 25.5272 29.069 25.8685C30.5627 26.2099 31.8527 26.7179 32.939 27.3925C34.0217 28.0672 34.8503 28.856 35.425 29.759C35.9997 30.6624 36.287 31.6594 36.287 32.75V34.44C36.287 34.921 36.1233 35.3252 35.796 35.6525C35.4687 35.9799 35.0645 36.1435 34.5835 36.1435H13.7035ZM39.4665 36.1435V32.745C39.4665 32.0514 39.4022 31.3969 39.2735 30.7815C39.1448 30.1659 38.9432 29.5617 38.6685 28.969C38.9952 28.9194 39.3212 28.8882 39.6465 28.8755C39.9718 28.8629 40.3042 28.8565 40.6435 28.8565C42.9428 28.8565 44.7917 29.2657 46.19 30.084C47.588 30.9024 48.287 31.991 48.287 33.35V34.44C48.287 34.921 48.1233 35.3252 47.796 35.6525C47.4687 35.9799 47.0645 36.1435 46.5835 36.1435H39.4665ZM15.4065 32.9045H32.8805V32.6045C32.8168 31.4109 31.9752 30.4424 30.3555 29.699C28.7358 28.9554 26.6652 28.5835 24.1435 28.5835C21.6218 28.5835 19.5512 28.9574 17.9315 29.705C16.3118 30.4524 15.4702 31.4355 15.4065 32.6545V32.9045ZM7.6245 27.3925C6.6465 27.3925 5.80783 27.0407 5.1085 26.337C4.4095 25.6337 4.06 24.788 4.06 23.8C4.06 22.8074 4.41083 21.9614 5.1125 21.262C5.8145 20.5627 6.65817 20.213 7.6435 20.213C8.63417 20.213 9.48117 20.5629 10.1845 21.2625C10.8875 21.9619 11.239 22.8142 11.239 23.8195C11.239 24.7949 10.8885 25.6342 10.1875 26.3375C9.48617 27.0409 8.63183 27.3925 7.6245 27.3925ZM40.6245 27.3925C39.6465 27.3925 38.8078 27.0407 38.1085 26.337C37.4095 25.6337 37.06 24.788 37.06 23.8C37.06 22.8074 37.4108 21.9614 38.1125 21.262C38.8145 20.5627 39.6582 20.213 40.6435 20.213C41.6342 20.213 42.4812 20.5629 43.1845 21.2625C43.8875 21.9619 44.239 22.8142 44.239 23.8195C44.239 24.7949 43.8885 25.6342 43.1875 26.3375C42.4862 27.0409 41.6318 27.3925 40.6245 27.3925ZM24.1495 23.8685C22.4412 23.8685 20.9892 23.2707 19.7935 22.075C18.5978 20.8794 18 19.4274 18 17.719C18 15.983 18.5978 14.5262 19.7935 13.3485C20.9892 12.1705 22.4412 11.5815 24.1495 11.5815C25.8855 11.5815 27.3423 12.1705 28.52 13.3485C29.698 14.5262 30.287 15.983 30.287 17.719C30.287 19.4274 29.698 20.8794 28.52 22.075C27.3423 23.2707 25.8855 23.8685 24.1495 23.8685ZM24.167 20.6295C24.986 20.6295 25.6728 20.3479 26.2275 19.7845C26.7825 19.2212 27.06 18.5264 27.06 17.7C27.06 16.874 26.7797 16.1857 26.219 15.635C25.6583 15.084 24.9723 14.8085 24.161 14.8085C23.34 14.8085 22.6478 15.0862 22.0845 15.6415C21.5208 16.1965 21.239 16.8844 21.239 17.705C21.239 18.5197 21.5183 19.2109 22.077 19.7785C22.6353 20.3459 23.332 20.6295 24.167 20.6295Z" fill="white"/>
</svg>
