<svg width="7" height="12" viewBox="0 0 7 12" fill="none" xmlns="http://www.w3.org/2000/svg">
<path d="M0.905898 0.516503C1.01005 0.516503 1.08957 0.547919 1.1702 0.62848L6.27773 5.73601C6.3334 5.79171 6.35941 5.83507 6.37155 5.86413V5.86514C6.38682 5.90187 6.39576 5.94295 6.39576 5.99325C6.39576 6.04356 6.38682 6.08463 6.37155 6.12137V6.12238C6.35941 6.15143 6.3334 6.1948 6.27773 6.2505L1.14498 11.3832C1.06464 11.4636 0.99529 11.4862 0.911951 11.4831C0.814819 11.4795 0.731287 11.4466 0.642603 11.358C0.561901 11.2773 0.529619 11.198 0.529618 11.0937C0.529618 10.9895 0.561899 10.9101 0.642603 10.8294L5.47877 5.99325L0.616374 1.13086C0.536145 1.0506 0.513478 0.9821 0.516503 0.898837C0.520065 0.801459 0.553707 0.717375 0.642603 0.62848C0.7231 0.548102 0.801988 0.516582 0.905898 0.516503Z" fill="white" stroke="white"/>
</svg>
