<svg width="48" height="48" viewBox="0 0 48 48" fill="none" xmlns="http://www.w3.org/2000/svg">
<path d="M18 34.676H29.5C29.9667 34.676 30.3583 34.5758 30.675 34.3755C30.9917 34.1751 31.2667 33.8748 31.5 33.4745L35.4 24.4005C35.4667 24.2335 35.525 23.9833 35.575 23.65C35.625 23.3166 35.65 23.0666 35.65 22.9V21.7C35.65 21.2333 35.5417 20.8916 35.325 20.675C35.1083 20.4583 34.7667 20.35 34.3 20.35H23.6L25.038 13.5575C25.1047 13.2591 25.1007 12.9773 25.026 12.712C24.9513 12.4466 24.8148 12.2148 24.6165 12.0165L23.65 11L15.6 19.7045C15.4667 19.9715 15.3333 20.2383 15.2 20.505C15.0667 20.7716 15 21.0551 15 21.3555V31.6795C15 32.4431 15.3 33.1335 15.9 33.7505C16.5 34.3675 17.2 34.676 18 34.676ZM24.0015 44.299C21.2195 44.299 18.5938 43.7676 16.1245 42.705C13.6555 41.6423 11.499 40.189 9.655 38.345C7.811 36.501 6.35766 34.345 5.295 31.877C4.23233 29.409 3.701 26.7838 3.701 24.0015C3.701 21.1861 4.23233 18.5438 5.295 16.0745C6.35766 13.6055 7.81033 11.4571 9.653 9.62946C11.4957 7.80146 13.6513 6.35446 16.12 5.28846C18.5887 4.22213 21.2145 3.68896 23.9975 3.68896C26.8135 3.68896 29.4567 4.2218 31.927 5.28746C34.397 6.35313 36.5455 7.7993 38.3725 9.62596C40.1998 11.4526 41.6463 13.6006 42.712 16.07C43.778 18.5393 44.311 21.1826 44.311 24C44.311 26.7833 43.7778 29.4095 42.7115 31.8785C41.6455 34.3475 40.1985 36.5035 38.3705 38.3465C36.5428 40.1895 34.395 41.6423 31.927 42.705C29.459 43.7676 26.8172 44.299 24.0015 44.299ZM24 40.8925C28.7013 40.8925 32.6922 39.2466 35.9725 35.955C39.2525 32.663 40.8925 28.678 40.8925 24C40.8925 19.2986 39.2525 15.3078 35.9725 12.0275C32.6922 8.74746 28.6993 7.10746 23.994 7.10746C19.322 7.10746 15.3395 8.74746 12.0465 12.0275C8.75383 15.3078 7.1075 19.3006 7.1075 24.006C7.1075 28.678 8.75333 32.6605 12.045 35.9535C15.337 39.2461 19.322 40.8925 24 40.8925Z" fill="#000408"/>
</svg>
