<svg width="24" height="24" viewBox="0 0 24 24" fill="none" xmlns="http://www.w3.org/2000/svg">
<path d="M1.59131 16.4543V13.9443C1.59131 13.335 1.74973 12.7803 2.06656 12.2801C2.38323 11.7801 2.81939 11.4093 3.37506 11.1676C4.38706 10.7263 5.42306 10.3629 6.48306 10.0776C7.54306 9.79226 8.63131 9.6496 9.74781 9.6496C10.6135 9.6496 11.4681 9.7371 12.3116 9.9121C13.1551 10.0871 13.9787 10.3246 14.7826 10.6246C14.5674 10.8318 14.3671 11.0502 14.1816 11.2798C13.9962 11.5093 13.8357 11.7547 13.7001 12.0158C13.0619 11.791 12.4126 11.6253 11.7521 11.5186C11.0916 11.4121 10.4224 11.3588 9.74456 11.3588C8.75006 11.3588 7.77981 11.4818 6.83381 11.7278C5.88781 11.9738 4.97673 12.2908 4.10056 12.6788C3.84656 12.7938 3.64973 12.9681 3.51006 13.2016C3.37039 13.4353 3.30056 13.6903 3.30056 13.9668V14.7511H12.8158C12.7951 15.0371 12.7981 15.322 12.8248 15.6058C12.8515 15.8897 12.8934 16.1725 12.9506 16.4543H1.59131ZM9.74381 8.1246C8.67181 8.1246 7.76639 7.7551 7.02756 7.0161C6.28856 6.2771 5.91906 5.37168 5.91906 4.29985C5.91906 3.22785 6.28823 2.32243 7.02656 1.5836C7.76473 0.844598 8.67148 0.475098 9.74681 0.475098C10.8168 0.475098 11.7212 0.844264 12.4601 1.5826C13.1991 2.32076 13.5686 3.22751 13.5686 4.30285C13.5686 5.37268 13.1991 6.2771 12.4601 7.0161C11.7212 7.7551 10.8158 8.1246 9.74381 8.1246ZM9.74306 6.4871C10.3589 6.4871 10.8776 6.27701 11.2991 5.85685C11.7204 5.43685 11.9311 4.91951 11.9311 4.30485C11.9311 3.69001 11.7209 3.17093 11.3006 2.7476C10.8804 2.32427 10.3628 2.1126 9.74781 2.1126C9.13114 2.1126 8.61181 2.32393 8.18981 2.7466C7.76764 3.16943 7.55656 3.68818 7.55656 4.30285C7.55656 4.91751 7.76698 5.43526 8.18781 5.8561C8.60881 6.27676 9.12723 6.4871 9.74306 6.4871ZM18.9621 4.30285C18.9621 5.36885 18.5916 6.27226 17.8508 7.0131C17.1101 7.7541 16.2061 8.1246 15.1386 8.1246C14.9191 8.1246 14.7113 8.11526 14.5153 8.0966C14.3193 8.07793 14.1133 8.02493 13.8973 7.9376C14.3553 7.4496 14.677 6.88743 14.8623 6.2511C15.0476 5.61476 15.1403 4.96543 15.1403 4.3031C15.1403 3.64093 15.0393 2.99551 14.8373 2.36685C14.6353 1.73835 14.322 1.1701 13.8973 0.662097C14.1013 0.585097 14.3033 0.534681 14.5033 0.510847C14.7033 0.487014 14.9172 0.475098 15.1451 0.475098C16.2067 0.475098 17.1083 0.84518 17.8498 1.58535C18.5913 2.32568 18.9621 3.23151 18.9621 4.30285ZM19.1346 20.0788C17.7971 20.0788 16.6564 19.606 15.7126 18.6603C14.7687 17.7147 14.2968 16.571 14.2968 15.2293C14.2968 13.8847 14.7696 12.7396 15.7153 11.7941C16.661 10.8484 17.8046 10.3756 19.1463 10.3756C20.491 10.3756 21.6361 10.8481 22.5816 11.7931C23.5272 12.7383 24.0001 13.8876 24.0001 15.2411C24.0001 16.5786 23.5276 17.7193 22.5826 18.6631C21.6374 19.6069 20.4881 20.0788 19.1346 20.0788ZM18.2043 17.3431L21.6143 13.9213L21.0233 13.3366L18.1983 16.1616L16.7983 14.7366L16.2076 15.3273L18.2043 17.3431Z" fill="#000408"/>
</svg>
