<svg width="24" height="24" viewBox="0 0 24 24" fill="none" xmlns="http://www.w3.org/2000/svg">
<path d="M7.24475 22.0657C6.74825 22.0657 6.325 21.8889 5.975 21.5354C5.625 21.1819 5.45 20.7569 5.45 20.2604C5.45 19.7639 5.62675 19.3407 5.98025 18.9907C6.33375 18.6407 6.75875 18.4657 7.25525 18.4657C7.75175 18.4657 8.175 18.6424 8.525 18.9959C8.875 19.3496 9.05 19.7746 9.05 20.2709C9.05 20.7674 8.87325 21.1907 8.51975 21.5407C8.16625 21.8907 7.74125 22.0657 7.24475 22.0657ZM17.3448 22.0657C16.8483 22.0657 16.425 21.8889 16.075 21.5354C15.725 21.1819 15.55 20.7569 15.55 20.2604C15.55 19.7639 15.7268 19.3407 16.0803 18.9907C16.4338 18.6407 16.8588 18.4657 17.3553 18.4657C17.8518 18.4657 18.275 18.6424 18.625 18.9959C18.975 19.3496 19.15 19.7746 19.15 20.2709C19.15 20.7674 18.9733 21.1907 18.6198 21.5407C18.2663 21.8907 17.8413 22.0657 17.3448 22.0657ZM3.45825 3.56569H2.3C2.06884 3.56569 1.87509 3.48719 1.71875 3.33019C1.56242 3.17336 1.48425 2.97886 1.48425 2.74669C1.48425 2.51469 1.56242 2.32128 1.71875 2.16644C1.87509 2.01161 2.06884 1.93419 2.3 1.93419H3.951C4.121 1.93419 4.27617 1.97594 4.4165 2.05944C4.55684 2.14278 4.65859 2.26061 4.72175 2.41294L8.712 10.9624H15.894L19.6343 4.44494C19.7049 4.32044 19.8033 4.22086 19.9293 4.14619C20.0551 4.07153 20.1938 4.03419 20.3453 4.03419C20.6581 4.03419 20.8918 4.16178 21.0463 4.41694C21.2006 4.67228 21.2051 4.93686 21.0598 5.21069L17.6208 11.6392C17.4294 11.9637 17.1835 12.2258 16.883 12.4254C16.5827 12.6251 16.25 12.7249 15.885 12.7249H8.35275L6.9945 15.2592H18.4C18.6312 15.2592 18.8249 15.3377 18.9813 15.4947C19.1376 15.6515 19.2158 15.846 19.2158 16.0782C19.2158 16.3102 19.1376 16.5036 18.9813 16.6584C18.8249 16.8133 18.6312 16.8907 18.4 16.8907H7.1C6.44434 16.8907 5.94667 16.6298 5.607 16.1079C5.26717 15.5859 5.24492 15.0547 5.54025 14.5142L7.12225 11.5999L3.45825 3.56569ZM12 9.33419C11.7377 9.33419 11.5195 9.24578 11.3455 9.06894C11.1713 8.89211 11.0843 8.67369 11.0843 8.41369C11.0843 8.15369 11.1713 7.93486 11.3455 7.75719C11.5195 7.57953 11.7377 7.49069 12 7.49069C12.2623 7.49069 12.4805 7.57911 12.6545 7.75594C12.8287 7.93294 12.9158 8.15219 12.9158 8.41369C12.9158 8.67369 12.8287 8.89211 12.6545 9.06894C12.4805 9.24578 12.2623 9.33419 12 9.33419ZM11.9955 5.86244C11.7683 5.86244 11.5813 5.78711 11.4345 5.63644C11.2877 5.48578 11.2143 5.29919 11.2143 5.07669V1.68419C11.2143 1.46153 11.2891 1.27486 11.4388 1.12419C11.5886 0.973526 11.7772 0.898193 12.0045 0.898193C12.2317 0.898193 12.4187 0.972693 12.5655 1.12169C12.7123 1.27069 12.7858 1.45819 12.7858 1.68419V5.07669C12.7858 5.29919 12.7109 5.48578 12.5613 5.63644C12.4114 5.78711 12.2228 5.86244 11.9955 5.86244Z" fill="#000408"/>
</svg>
