<svg width="24" height="24" viewBox="0 0 24 24" fill="none" xmlns="http://www.w3.org/2000/svg">
<path d="M5.33102 21.1017C4.96986 21.1017 4.66677 20.9792 4.42177 20.7342C4.17677 20.4892 4.05427 20.1861 4.05427 19.825C4.05427 19.4638 4.17677 19.1607 4.42177 18.9157C4.66677 18.6707 4.96986 18.5482 5.33102 18.5482H7.33102L4.75877 9.76748C4.17361 9.52131 3.71411 9.16982 3.38027 8.71298C3.04627 8.25615 2.87927 7.65181 2.87927 6.89998C2.87927 6.08081 3.17977 5.36973 3.78077 4.76673C4.38161 4.1639 5.09161 3.86248 5.91077 3.86248C6.68011 3.86248 7.32036 4.06931 7.83152 4.48298C8.34269 4.89648 8.68761 5.45215 8.86627 6.14998H12.295V4.67498C12.295 4.45498 12.376 4.26407 12.538 4.10223C12.7 3.94023 12.8909 3.85923 13.1108 3.85923C13.2903 3.85923 13.4425 3.92706 13.5675 4.06273C13.6925 4.1984 13.7569 4.3559 13.7608 4.53523L15.594 2.77723C15.7394 2.6359 15.9222 2.5424 16.1425 2.49673C16.3627 2.45106 16.5871 2.48023 16.8158 2.58423L20.7658 4.48423C20.9358 4.57556 21.0529 4.70615 21.117 4.87598C21.1814 5.04598 21.1659 5.22423 21.0708 5.41073C20.9794 5.5894 20.8456 5.6994 20.6693 5.74073C20.4931 5.78206 20.322 5.75506 20.156 5.65973L16.3288 3.80273L13.9325 6.22398V7.46423L16.3288 9.99123L20.156 8.12123C20.3425 8.0299 20.5178 8.00606 20.6818 8.04973C20.8458 8.0934 20.9754 8.20456 21.0708 8.38323C21.1659 8.56973 21.1814 8.75631 21.117 8.94298C21.0529 9.12948 20.9274 9.2684 20.7408 9.35973L16.9338 11.1537C16.6804 11.2824 16.4385 11.3416 16.208 11.3312C15.9774 11.3209 15.7727 11.2264 15.594 11.0477L13.7608 9.28973C13.7569 9.52307 13.6935 9.69406 13.5705 9.80273C13.4474 9.9114 13.2941 9.96573 13.1108 9.96573C12.8909 9.96573 12.7 9.88473 12.538 9.72273C12.376 9.5609 12.295 9.36998 12.295 9.14998V7.64998H8.81627C8.80827 7.86998 8.74219 8.10206 8.61802 8.34623C8.49369 8.5904 8.35052 8.77915 8.18852 8.91248L13.182 18.5482H16.0108C16.3721 18.5482 16.6752 18.6707 16.92 18.9157C17.165 19.1607 17.2875 19.4638 17.2875 19.825C17.2875 20.1861 17.165 20.4892 16.92 20.7342C16.6752 20.9792 16.3721 21.1017 16.0108 21.1017H5.33102ZM5.91077 8.29998C6.31077 8.29998 6.64411 8.16665 6.91077 7.89998C7.17744 7.63331 7.31077 7.29998 7.31077 6.89998C7.31077 6.49998 7.17744 6.16665 6.91077 5.89998C6.64411 5.63331 6.31077 5.49998 5.91077 5.49998C5.51077 5.49998 5.17744 5.63331 4.91077 5.89998C4.64411 6.16665 4.51077 6.49998 4.51077 6.89998C4.51077 7.29998 4.64411 7.63331 4.91077 7.89998C5.17744 8.16665 5.51077 8.29998 5.91077 8.29998ZM8.98702 18.5482H11.507L6.90177 9.58848C6.84377 9.62581 6.75544 9.66215 6.63677 9.69748C6.51811 9.73281 6.42544 9.75881 6.35877 9.77548L8.98702 18.5482Z" fill="#000408"/>
</svg>
