<svg width="48" height="48" viewBox="0 0 48 48" fill="none" xmlns="http://www.w3.org/2000/svg">
<path d="M10.662 42.2035C9.93967 42.2035 9.3335 41.9585 8.8435 41.4685C8.3535 40.9785 8.1085 40.3723 8.1085 39.65C8.1085 38.9276 8.3535 38.3215 8.8435 37.8315C9.3335 37.3415 9.93967 37.0965 10.662 37.0965H14.662L9.5175 19.535C8.34717 19.0426 7.42817 18.3396 6.7605 17.426C6.0925 16.5123 5.7585 15.3036 5.7585 13.8C5.7585 12.1616 6.3595 10.7395 7.5615 9.53346C8.76317 8.32779 10.1832 7.72496 11.8215 7.72496C13.3602 7.72496 14.6407 8.13863 15.663 8.96596C16.6853 9.79296 17.3752 10.9043 17.7325 12.3H24.59V9.34996C24.59 8.90996 24.752 8.52813 25.076 8.20446C25.4 7.88046 25.7818 7.71846 26.2215 7.71846C26.5805 7.71846 26.885 7.85413 27.135 8.12546C27.385 8.3968 27.5138 8.71179 27.5215 9.07046L31.188 5.55446C31.4787 5.2718 31.8443 5.0848 32.285 4.99346C32.7253 4.90213 33.1742 4.96046 33.6315 5.16846L41.5315 8.96846C41.8715 9.15113 42.1057 9.41229 42.234 9.75196C42.3627 10.092 42.3318 10.4485 42.1415 10.8215C41.9588 11.1788 41.6912 11.3988 41.3385 11.4815C40.9862 11.5641 40.644 11.5101 40.312 11.3195L32.6575 7.60546L27.865 12.448V14.9285L32.6575 19.9825L40.312 16.2425C40.685 16.0598 41.0355 16.0121 41.3635 16.0995C41.6915 16.1868 41.9508 16.4091 42.1415 16.7665C42.3318 17.1395 42.3627 17.5126 42.234 17.886C42.1057 18.259 41.8548 18.5368 41.4815 18.7195L33.8675 22.3075C33.3608 22.5648 32.877 22.6831 32.416 22.6625C31.9547 22.6418 31.5453 22.4528 31.188 22.0955L27.5215 18.5795C27.5138 19.0461 27.387 19.3881 27.141 19.6055C26.8947 19.8228 26.5882 19.9315 26.2215 19.9315C25.7818 19.9315 25.4 19.7695 25.076 19.4455C24.752 19.1218 24.59 18.74 24.59 18.3V15.3H17.6325C17.6165 15.74 17.4843 16.2041 17.236 16.6925C16.9873 17.1808 16.701 17.5583 16.377 17.825L26.364 37.0965H32.0215C32.7442 37.0965 33.3503 37.3415 33.84 37.8315C34.33 38.3215 34.575 38.9276 34.575 39.65C34.575 40.3723 34.33 40.9785 33.84 41.4685C33.3503 41.9585 32.7442 42.2035 32.0215 42.2035H10.662ZM11.8215 16.6C12.6215 16.6 13.2882 16.3333 13.8215 15.8C14.3548 15.2666 14.6215 14.6 14.6215 13.8C14.6215 13 14.3548 12.3333 13.8215 11.8C13.2882 11.2666 12.6215 11 11.8215 11C11.0215 11 10.3548 11.2666 9.8215 11.8C9.28817 12.3333 9.0215 13 9.0215 13.8C9.0215 14.6 9.28817 15.2666 9.8215 15.8C10.3548 16.3333 11.0215 16.6 11.8215 16.6ZM17.974 37.0965H23.014L13.8035 19.177C13.6875 19.2516 13.5108 19.3243 13.2735 19.395C13.0362 19.4656 12.8508 19.5176 12.7175 19.551L17.974 37.0965Z" fill="white"/>
</svg>
