<svg width="48" height="48" viewBox="0 0 48 48" fill="none" xmlns="http://www.w3.org/2000/svg">
<path d="M12.201 20.1955L9.326 21.79C8.81967 22.049 8.29017 22.1121 7.7375 21.9795C7.18483 21.8468 6.79667 21.5438 6.573 21.0705L2.9915 14.8215C2.69283 14.2991 2.61183 13.8455 2.7485 13.4605C2.88517 13.0751 3.194 12.7371 3.675 12.4465L15.2665 5.68896H18.61C19.0403 5.68896 19.3897 5.8233 19.658 6.09196C19.9267 6.3603 20.061 6.70963 20.061 7.13996V7.94996C20.061 9.13696 20.429 10.0986 21.165 10.835C21.9013 11.571 22.863 11.939 24.05 11.939C25.237 11.939 26.1923 11.571 26.916 10.835C27.6393 10.0986 28.001 9.13696 28.001 7.94996V7.13996C28.001 6.70963 28.1333 6.3603 28.398 6.09196C28.6623 5.8233 29.0137 5.68896 29.452 5.68896H32.7835L44.375 12.4465C44.856 12.7371 45.1565 13.0751 45.2765 13.4605C45.3965 13.8455 45.3238 14.2991 45.0585 14.8215L41.427 21.0705C41.2033 21.5358 40.7568 21.8471 40.0875 22.0045C39.4182 22.1615 38.8803 22.1273 38.474 21.902L35.661 20.0835V40.05C35.661 40.663 35.427 41.191 34.959 41.634C34.4913 42.0773 33.951 42.299 33.338 42.299H14.45C13.837 42.299 13.309 42.0773 12.866 41.634C12.4227 41.191 12.201 40.663 12.201 40.05V20.1955ZM15.6075 14.39V38.8925H32.2425V14.39L39.202 18.276L41.3925 14.448L32.21 9.20546H31.31C31.0193 10.9975 30.2117 12.4708 28.887 13.6255C27.5623 14.7801 25.95 15.3575 24.05 15.3575C22.15 15.3575 20.5293 14.7801 19.188 13.6255C17.8467 12.4708 17.0347 10.9975 16.752 9.20546H15.852L6.6575 14.448L8.848 18.276L15.6075 14.39Z" fill="#000408"/>
</svg>
