<svg width="48" height="48" viewBox="0 0 48 48" fill="none" xmlns="http://www.w3.org/2000/svg">
<path d="M23.95 30.8215C25.0167 30.8215 25.9167 30.4632 26.65 29.7465C27.3833 29.0299 27.75 28.1382 27.75 27.0715C27.75 26.0049 27.3833 25.1132 26.65 24.3965C25.9167 23.6799 25.025 23.3215 23.975 23.3215C22.925 23.3215 22.0417 23.689 21.325 24.424C20.6083 25.1587 20.25 26.042 20.25 27.074C20.25 28.1057 20.6123 28.9882 21.337 29.7215C22.0617 30.4549 22.9327 30.8215 23.95 30.8215ZM7.10749 42.299C6.18749 42.299 5.38982 41.9612 4.71449 41.2855C4.03882 40.6102 3.70099 39.8125 3.70099 38.8925V15.251C3.70099 14.3277 4.03882 13.5272 4.71449 12.8495C5.38982 12.1715 6.18749 11.8325 7.10749 11.8325H15.725V6.83253C15.725 5.92086 16.0628 5.12519 16.7385 4.44552C17.4138 3.76586 18.2115 3.42603 19.1315 3.42603H28.8685C29.7885 3.42603 30.5862 3.76586 31.2615 4.44552C31.9372 5.12519 32.275 5.92086 32.275 6.83253V11.8325H40.8925C41.8158 11.8325 42.6163 12.1715 43.294 12.8495C43.972 13.5272 44.311 14.3277 44.311 15.251V38.8925C44.311 39.8125 43.972 40.6102 43.294 41.2855C42.6163 41.9612 41.8158 42.299 40.8925 42.299H7.10749ZM7.10749 38.8925H40.8925V15.251H7.10749V38.8925ZM19.1315 11.8325H28.8685V6.83253H19.1315V11.8325Z" fill="#000408"/>
</svg>
